# xmcd
#
# Track frame offsets:
# 150
# 12350
# 24525
# 34725
# 45150
# 58975
# 71300
# 83250
# 95500
# 106950
# 121550
# 134575
# 149075
# 162625
# 176900
# 190800
#
# Disc length: 2725 seconds
#
#
# Revision: 0
# Processed by: cddbd v1.4PL0 Copyright (c) Steve Scherf et al.
# Submitted via: FreeRIP 2.30 
#
DISCID=d70aa310
DTITLE=Sandie Shaw - 16 Greatest Hits
DYEAR=1993
DGENRE=Vocal
TTITLE0=There's always something there to remind me
TTITLE1=Long live love
TTITLE2=You've not changed
TTITLE3=Today
TTITLE4=Think it all over
TTITLE5=Stop
TTITLE6=Heaven knows I missing him now
TTITLE7=Homeward bound
TTITLE8=Love me do
TTITLE9=Route 66
TTITLE10=Monsieur Dupont
TTITLE11=Rose Garden
TTITLE12=Satisfaction
TTITLE13=Words
TTITLE14=You've been seeing her again
TTITLE15=Maple village
EXTD=
EXTT0=
EXTT1=
EXTT2=
EXTT3=
EXTT4=
EXTT5=
EXTT6=
EXTT7=
EXTT8=
EXTT9=
EXTT10=
EXTT11=
EXTT12=
EXTT13=
EXTT14=
EXTT15=
PLAYORDER=
